<?xml version="1.0" encoding="utf-8"?>
<!-- Generator: Adobe Illustrator 21.0.0, SVG Export Plug-In . SVG Version: 6.00 Build 0)  -->
<svg version="1.1" id="artwork" xmlns="http://www.w3.org/2000/svg" xmlns:xlink="http://www.w3.org/1999/xlink" x="0px" y="0px"
	 viewBox="0 0 141.2 141.2" style="enable-background:new 0 0 141.2 141.2;" xml:space="preserve">
<style type="text/css">
	.st0{fill:none;stroke:#00D0B4;stroke-width:1.25;stroke-linecap:round;stroke-linejoin:round;}
	.st1{fill:none;stroke:#14224C;stroke-width:1.25;stroke-linecap:round;stroke-linejoin:round;}
</style>
<title>cloud shift</title>
<g>
	<polyline class="st0" points="59.7,118.8 70.6,107.9 81.5,118.8 	"/>
	<line class="st0" x1="70.6" y1="107.9" x2="70.6" y2="140.6"/>
	<polyline class="st0" points="81.5,22.4 70.6,33.3 59.7,22.4 	"/>
	<line class="st0" x1="70.6" y1="33.3" x2="70.6" y2="0.6"/>
	<polyline class="st0" points="22.4,59.7 33.3,70.6 22.4,81.5 	"/>
	<line class="st0" x1="33.3" y1="70.6" x2="0.6" y2="70.6"/>
	<polyline class="st0" points="118.8,81.5 107.9,70.6 118.8,59.7 	"/>
	<line class="st0" x1="107.9" y1="70.6" x2="140.6" y2="70.6"/>
	<polyline class="st0" points="28.8,97 44.2,97 44.2,112.4 	"/>
	<line class="st0" x1="44.2" y1="97" x2="21.1" y2="120.1"/>
	<polyline class="st0" points="112.4,44.2 97,44.2 97,28.8 	"/>
	<line class="st0" x1="97" y1="44.2" x2="120.1" y2="21.1"/>
	<polyline class="st0" points="44.2,28.8 44.2,44.2 28.8,44.2 	"/>
	<line class="st0" x1="44.2" y1="44.2" x2="21.1" y2="21.1"/>
	<polyline class="st0" points="97,112.4 97,97 112.4,97 	"/>
	<line class="st0" x1="97" y1="97" x2="120.1" y2="120.1"/>
	<path class="st1" d="M60.3,81.9c-8.9,0-13.8-3-13.8-10.2c0-7.2,5.9-10.6,11.1-10.6c0-5,5.3-10.4,12.5-10.4s12.1,5.8,12.1,10.9
		c9-3.1,14.9,2.8,14.9,10.4c0,7.6-6.6,9.9-13.2,9.9L60.3,81.9z"/>
</g>
</svg>
